<svg data-v-29081953="" xmlns="http://www.w3.org/2000/svg" viewBox="0 0 300 300"><!----><defs data-v-29081953=""><!----></defs><rect data-v-29081953="" fill="#F3E5E6" x="0" y="0" width="300px" height="300px" class="logo-background-square"></rect><defs data-v-29081953=""><!----></defs><g data-v-29081953="" id="4684e2e6-7f75-40b5-b498-dc21f9b8293b" fill="#40181B" transform="matrix(3.034901430571618,0,0,3.034901430571618,16.176024226422836,155.57056103613718)"><path d="M7.63 17.18L6.10 17.18L4.65 14.08L2.66 14.08L2.66 17.18L1.26 17.18L1.26 8.43L4.76 8.43L4.76 8.43Q5.70 8.43 6.22 8.71L6.22 8.71L6.22 8.71Q6.75 8.99 6.98 9.63L6.98 9.63L6.98 9.63Q7.21 10.26 7.21 11.38L7.21 11.38L7.21 11.38Q7.21 12.46 6.94 13.07L6.94 13.07L6.94 13.07Q6.66 13.68 6.05 13.92L6.05 13.92L7.63 17.18ZM2.66 9.59L2.66 12.98L4.77 12.98L4.77 12.98Q5.32 12.98 5.53 12.85L5.53 12.85L5.53 12.85Q5.74 12.73 5.74 12.39L5.74 12.39L5.74 10.18L5.74 10.18Q5.74 9.84 5.53 9.72L5.53 9.72L5.53 9.72Q5.32 9.59 4.77 9.59L4.77 9.59L2.66 9.59ZM11.98 10.04L11.98 10.04Q12.95 10.04 13.51 10.23L13.51 10.23L13.51 10.23Q14.07 10.42 14.32 10.84L14.32 10.84L14.32 10.84Q14.56 11.27 14.56 12.00L14.56 12.00L14.56 17.18L13.92 17.18L13.54 16.48L13.54 16.48Q13.03 16.91 12.43 17.12L12.43 17.12L12.43 17.12Q11.82 17.32 11.03 17.32L11.03 17.32L11.03 17.32Q9.87 17.32 9.38 16.84L9.38 16.84L9.38 16.84Q8.89 16.35 8.89 15.22L8.89 15.22L8.89 15.22Q8.89 14.20 9.17 13.75L9.17 13.75L9.17 13.75Q9.45 13.30 10.27 13.15L10.27 13.15L10.27 13.15Q11.09 12.99 12.95 12.99L12.95 12.99L13.16 12.99L13.16 11.30L13.16 11.30Q12.64 11.14 11.75 11.14L11.75 11.14L11.75 11.14Q10.63 11.14 9.38 11.48L9.38 11.48L9.20 10.46L9.20 10.46Q9.72 10.28 10.49 10.16L10.49 10.16L10.49 10.16Q11.26 10.04 11.98 10.04L11.98 10.04ZM12.04 16.24L12.04 16.24Q12.70 16.24 12.93 16.07L12.93 16.07L12.93 16.07Q13.16 15.90 13.16 15.43L13.16 15.43L13.16 13.90L11.30 13.90L11.30 13.90Q10.64 13.90 10.40 14.07L10.40 14.07L10.40 14.07Q10.16 14.24 10.16 14.71L10.16 14.71L10.16 16.24L12.04 16.24ZM16.86 17.18L16.86 17.18ZM17.01 10.28L18.41 10.07L18.41 17.18L17.01 17.18L17.01 10.28ZM17.72 8.96L17.72 8.96Q17.21 8.96 17.03 8.79L17.03 8.79L17.03 8.79Q16.86 8.61 16.86 8.12L16.86 8.12L16.86 8.12Q16.86 7.62 17.04 7.43L17.04 7.43L17.04 7.43Q17.22 7.25 17.72 7.25L17.72 7.25L17.72 7.25Q18.21 7.25 18.39 7.43L18.39 7.43L18.39 7.43Q18.56 7.62 18.56 8.12L18.56 8.12L18.56 8.12Q18.56 8.61 18.40 8.79L18.40 8.79L18.40 8.79Q18.23 8.96 17.72 8.96L17.72 8.96ZM27.30 17.18L25.77 17.18L24.32 14.08L22.33 14.08L22.33 17.18L20.93 17.18L20.93 8.43L24.43 8.43L24.43 8.43Q25.37 8.43 25.89 8.71L25.89 8.71L25.89 8.71Q26.42 8.99 26.65 9.63L26.65 9.63L26.65 9.63Q26.88 10.26 26.88 11.38L26.88 11.38L26.88 11.38Q26.88 12.46 26.61 13.07L26.61 13.07L26.61 13.07Q26.33 13.68 25.72 13.92L25.72 13.92L27.30 17.18ZM22.33 9.59L22.33 12.98L24.44 12.98L24.44 12.98Q24.99 12.98 25.20 12.85L25.20 12.85L25.20 12.85Q25.41 12.73 25.41 12.39L25.41 12.39L25.41 10.18L25.41 10.18Q25.41 9.84 25.20 9.72L25.20 9.72L25.20 9.72Q24.99 9.59 24.44 9.59L24.44 9.59L22.33 9.59ZM31.65 10.04L31.65 10.04Q32.62 10.04 33.18 10.23L33.18 10.23L33.18 10.23Q33.74 10.42 33.98 10.84L33.98 10.84L33.98 10.84Q34.23 11.27 34.23 12.00L34.23 12.00L34.23 17.18L33.59 17.18L33.21 16.48L33.21 16.48Q32.70 16.91 32.09 17.12L32.09 17.12L32.09 17.12Q31.49 17.32 30.70 17.32L30.70 17.32L30.70 17.32Q29.54 17.32 29.05 16.84L29.05 16.84L29.05 16.84Q28.56 16.35 28.56 15.22L28.56 15.22L28.56 15.22Q28.56 14.20 28.84 13.75L28.84 13.75L28.84 13.75Q29.12 13.30 29.94 13.15L29.94 13.15L29.94 13.15Q30.76 12.99 32.62 12.99L32.62 12.99L32.83 12.99L32.83 11.30L32.83 11.30Q32.31 11.14 31.42 11.14L31.42 11.14L31.42 11.14Q30.30 11.14 29.05 11.48L29.05 11.48L28.87 10.46L28.87 10.46Q29.39 10.28 30.16 10.16L30.16 10.16L30.16 10.16Q30.93 10.04 31.65 10.04L31.65 10.04ZM31.71 16.24L31.71 16.24Q32.37 16.24 32.60 16.07L32.60 16.07L32.60 16.07Q32.83 15.90 32.83 15.43L32.83 15.43L32.83 13.90L30.97 13.90L30.97 13.90Q30.31 13.90 30.07 14.07L30.07 14.07L30.07 14.07Q29.83 14.24 29.83 14.71L29.83 14.71L29.83 16.24L31.71 16.24ZM36.53 17.18L36.53 17.18ZM36.68 10.28L38.08 10.07L38.08 17.18L36.68 17.18L36.68 10.28ZM37.39 8.96L37.39 8.96Q36.88 8.96 36.70 8.79L36.70 8.79L36.70 8.79Q36.53 8.61 36.53 8.12L36.53 8.12L36.53 8.12Q36.53 7.62 36.71 7.43L36.71 7.43L36.71 7.43Q36.89 7.25 37.39 7.25L37.39 7.25L37.39 7.25Q37.88 7.25 38.06 7.43L38.06 7.43L38.06 7.43Q38.23 7.62 38.23 8.12L38.23 8.12L38.23 8.12Q38.23 8.61 38.07 8.79L38.07 8.79L38.07 8.79Q37.90 8.96 37.39 8.96L37.39 8.96ZM39.80 13.22L39.80 13.22Q39.80 12.91 39.96 12.82L39.96 12.82L39.96 12.82Q40.11 12.74 40.52 12.74L40.52 12.74L43.78 12.74L43.78 13.44L43.78 13.44Q43.78 13.75 43.62 13.83L43.62 13.83L43.62 13.83Q43.47 13.92 43.06 13.92L43.06 13.92L39.80 13.92L39.80 13.22ZM45.50 17.18L45.50 8.43L46.90 8.43L46.90 16.02L50.12 16.02L50.12 17.18L45.50 17.18ZM51.37 17.18L51.37 17.18ZM51.52 10.28L52.92 10.07L52.92 17.18L51.52 17.18L51.52 10.28ZM52.23 8.96L52.23 8.96Q51.72 8.96 51.54 8.79L51.54 8.79L51.54 8.79Q51.37 8.61 51.37 8.12L51.37 8.12L51.37 8.12Q51.37 7.62 51.55 7.43L51.55 7.43L51.55 7.43Q51.73 7.25 52.23 7.25L52.23 7.25L52.23 7.25Q52.72 7.25 52.90 7.43L52.90 7.43L52.90 7.43Q53.07 7.62 53.07 8.12L53.07 8.12L53.07 8.12Q53.07 8.61 52.91 8.79L52.91 8.79L52.91 8.79Q52.74 8.96 52.23 8.96L52.23 8.96ZM58.76 8.88L57.26 8.75L57.26 10.18L58.38 10.18L58.38 11.14L57.26 11.14L57.26 17.18L55.86 17.18L55.86 11.14L54.88 11.14L54.88 10.18L55.86 10.18L55.86 10.18Q55.92 9.21 56.08 8.69L56.08 8.69L56.08 8.69Q56.25 8.16 56.60 7.95L56.60 7.95L56.60 7.95Q56.94 7.73 57.55 7.73L57.55 7.73L57.55 7.73Q58.23 7.73 58.84 7.87L58.84 7.87L58.76 8.88ZM62.65 16.21L62.65 16.21Q63.22 16.21 63.77 16.14L63.77 16.14L63.77 16.14Q64.32 16.06 65.07 15.88L65.07 15.88L65.25 16.90L65.25 16.90Q64.74 17.09 63.97 17.21L63.97 17.21L63.97 17.21Q63.21 17.32 62.40 17.32L62.40 17.32L62.40 17.32Q61.31 17.32 60.73 17.00L60.73 17.00L60.73 17.00Q60.16 16.69 59.92 15.92L59.92 15.92L59.92 15.92Q59.68 15.15 59.68 13.68L59.68 13.68L59.68 13.68Q59.68 12.26 59.96 11.49L59.96 11.49L59.96 11.49Q60.23 10.71 60.86 10.37L60.86 10.37L60.86 10.37Q61.49 10.04 62.64 10.04L62.64 10.04L62.64 10.04Q63.77 10.04 64.37 10.22L64.37 10.22L64.37 10.22Q64.96 10.40 65.20 10.84L65.20 10.84L65.20 10.84Q65.44 11.28 65.44 12.14L65.44 12.14L65.44 12.14Q65.44 13.16 65.14 13.61L65.14 13.61L65.14 13.61Q64.85 14.06 63.99 14.21L63.99 14.21L63.99 14.21Q63.13 14.36 61.15 14.36L61.15 14.36L61.15 16.06L61.15 16.06Q61.71 16.21 62.65 16.21L62.65 16.21ZM62.31 11.19L62.31 11.19Q61.64 11.19 61.40 11.35L61.40 11.35L61.40 11.35Q61.15 11.52 61.15 12.00L61.15 12.00L61.15 13.45L63.00 13.45L63.00 13.45Q63.69 13.45 63.93 13.29L63.93 13.29L63.93 13.29Q64.18 13.12 64.18 12.64L64.18 12.64L64.18 11.19L62.31 11.19ZM67.68 17.18L67.68 8.43L69.08 8.43L69.08 16.02L72.30 16.02L72.30 17.18L67.68 17.18ZM76.31 17.32L76.31 17.32Q75.05 17.32 74.42 17.02L74.42 17.02L74.42 17.02Q73.78 16.72 73.53 15.95L73.53 15.95L73.53 15.95Q73.28 15.18 73.28 13.68L73.28 13.68L73.28 13.68Q73.28 12.18 73.53 11.41L73.53 11.41L73.53 11.41Q73.78 10.64 74.42 10.34L74.42 10.34L74.42 10.34Q75.05 10.04 76.31 10.04L76.31 10.04L76.31 10.04Q77.59 10.04 78.22 10.34L78.22 10.34L78.22 10.34Q78.85 10.64 79.10 11.40L79.10 11.40L79.10 11.40Q79.35 12.17 79.35 13.68L79.35 13.68L79.35 13.68Q79.35 15.18 79.10 15.95L79.10 15.95L79.10 15.95Q78.85 16.72 78.21 17.02L78.21 17.02L78.21 17.02Q77.57 17.32 76.31 17.32L76.31 17.32ZM74.73 16.17L77.22 16.17L77.22 16.17Q77.63 16.17 77.76 16.10L77.76 16.10L77.76 16.10Q77.90 16.03 77.90 15.82L77.90 15.82L77.90 11.19L75.40 11.19L75.40 11.19Q75.00 11.19 74.87 11.26L74.87 11.26L74.87 11.26Q74.73 11.33 74.73 11.54L74.73 11.54L74.73 16.17ZM83.79 16.14L83.79 16.14Q84.95 16.27 85.50 16.43L85.50 16.43L85.50 16.43Q86.04 16.59 86.24 16.87L86.24 16.87L86.24 16.87Q86.44 17.15 86.44 17.72L86.44 17.72L86.44 17.72Q86.44 18.38 86.17 18.77L86.17 18.77L86.17 18.77Q85.90 19.15 85.30 19.32L85.30 19.32L85.30 19.32Q84.69 19.49 83.65 19.49L83.65 19.49L83.65 19.49Q82.89 19.49 82.17 19.38L82.17 19.38L82.17 19.38Q81.45 19.26 80.93 19.07L80.93 19.07L81.12 18.00L81.12 18.00Q81.84 18.19 82.36 18.26L82.36 18.26L82.36 18.26Q82.87 18.34 83.40 18.34L83.40 18.34L83.40 18.34Q84.48 18.34 85.19 18.19L85.19 18.19L85.19 17.15L85.19 17.15Q83.76 17.07 83.16 16.93L83.16 16.93L83.16 16.93Q82.56 16.79 82.56 16.55L82.56 16.55L82.94 15.11L82.94 15.11Q82.14 15.04 81.68 14.77L81.68 14.77L81.68 14.77Q81.23 14.50 81.03 13.97L81.03 13.97L81.03 13.97Q80.82 13.44 80.82 12.56L80.82 12.56L80.82 12.56Q80.82 11.56 81.08 11.01L81.08 11.01L81.08 11.01Q81.34 10.46 81.93 10.21L81.93 10.21L81.93 10.21Q82.52 9.97 83.58 9.97L83.58 9.97L83.58 9.97Q84.66 9.97 85.23 10.21L85.23 10.21L86.23 9.45L86.93 10.14L86.11 11.07L86.11 11.07Q86.35 11.61 86.35 12.56L86.35 12.56L86.35 12.56Q86.35 13.51 86.12 14.06L86.12 14.06L86.12 14.06Q85.89 14.60 85.35 14.85L85.35 14.85L85.35 14.85Q84.81 15.11 83.86 15.13L83.86 15.13L83.79 16.14ZM82.21 11.76L82.21 14.21L83.94 14.21L83.94 14.21Q84.52 14.21 84.74 14.02L84.74 14.02L84.74 14.02Q84.97 13.83 84.97 13.34L84.97 13.34L84.97 10.89L83.23 10.89L83.23 10.89Q82.66 10.89 82.43 11.08L82.43 11.08L82.43 11.08Q82.21 11.27 82.21 11.76L82.21 11.76Z"></path></g><defs data-v-29081953=""><linearGradient data-v-29081953="" gradientTransform="rotate(25)" id="3762d374-5fe1-4230-ba7e-a64801c3c090" x1="0%" y1="0%" x2="100%" y2="0%"><stop data-v-29081953="" offset="0%" stop-color="#420F14" stop-opacity="1"></stop><stop data-v-29081953="" offset="100%" stop-color="#C5545E" stop-opacity="1"></stop></linearGradient></defs><g data-v-29081953="" id="9ca7bdf1-7fca-457f-921a-0e56eab4d329" stroke="none" fill="url(#3762d374-5fe1-4230-ba7e-a64801c3c090)" transform="matrix(0.09377980808119547,0,0,0.09377980808119547,102.76324832846085,76.0043868988458)"><path d="M292.4 147.3c-13.3 0-24.2-10.9-24.2-24.2 0-13.3 10.9-24.2 24.2-24.2 13.3 0 24.2 10.9 24.2 24.2 0 13.3-10.9 24.2-24.2 24.2zm0-38.4c-7.8 0-14.2 6.4-14.2 14.2 0 7.8 6.4 14.2 14.2 14.2 7.8 0 14.2-6.4 14.2-14.2 0-7.8-6.4-14.2-14.2-14.2z"></path><path d="M502.9 875.9c-45.6 0-89.9-8.8-131.8-26.3-41.2-17.1-78.2-41.8-110.1-73.3-31.9-31.5-57-68.2-74.6-109.2-18.2-42.4-27.6-87.5-27.8-134-.1-20.5 1.6-40.9 5.1-60.7l9.8 1.7c-3.4 19.2-5 39-4.9 58.9.2 45.1 9.3 88.9 27 130.1 17.1 39.8 41.5 75.4 72.4 106 31 30.6 66.9 54.5 106.9 71.2 40.7 16.9 83.7 25.5 128 25.5h2.4c88.8-.6 172.2-35.6 234.8-98.6 62.7-63.1 97.2-146.8 97.2-235.7 0-89.3-34.7-173.2-97.7-236.3-63-63.1-146.9-97.9-236.2-98h-1c-31 0-61.7 4.3-91.2 12.7-19.6 5.6-40.8.2-55.2-14.2l-54.7-54.5 7.1-7.1 54.7 54.5c11.9 11.8 29.3 16.2 45.4 11.6 30.7-8.8 62.7-13.2 95-13.1 92 .1 178.4 36 243.3 101s100.6 151.4 100.6 243.3c0 91.6-35.5 177.7-100.1 242.7-64.5 64.9-150.4 101-241.9 101.6-.9.2-1.7.2-2.5.2z"></path><path d="M710 773.9c-8.2 6.8-9.4 18.9-2.6 27.1 6.7 8.2 18.8 9.4 27 2.7h.1c46.8-38.5 80.7-87 101-139.8 3-6.5 2.2-14.4-2.6-20.2-6.8-8.2-18.9-9.4-27.1-2.6-2.7 2.2-4.6 4.9-5.7 7.9-18.1 47.2-48.3 90.6-90.1 124.9M461.8 849.3c-10.5-1.6-20.3 5.6-21.9 16.1s5.6 20.2 16 21.9h.1c59.9 9 118.6 1.8 171.4-18.4 6.8-2.1 12.2-8 13.3-15.5 1.6-10.5-5.6-20.3-16.1-21.9-3.4-.5-6.7-.1-9.7 1-47.2 18.3-99.6 24.9-153.1 16.8M246.2 719.5c-6.1-8.7-18.1-10.7-26.8-4.5-8.6 6.1-10.7 18.1-4.6 26.7l.1.1c35.1 49.4 81 86.6 132.3 110.6 6.2 3.4 14.2 3.2 20.4-1.2 8.7-6.2 10.7-18.2 4.5-26.8-2-2.8-4.6-4.9-7.5-6.3-45.9-21.3-87.1-54.5-118.4-98.6M745.6 319.9c7 8 19.2 8.7 27.1 1.7 7.9-7 8.7-19.1 1.7-27.1v-.1c-40.1-45.4-89.7-77.5-143.2-96-6.6-2.7-14.4-1.7-20.1 3.3-8 7-8.7 19.2-1.7 27.1 2.3 2.6 5.1 4.4 8.1 5.4 47.9 16.6 92.3 45.2 128.1 85.7M185.4 487.1c1.6-10.5-5.6-20.3-16.1-21.9s-20.3 5.6-21.9 16v.1c-9.1 59.9-2 118.6 18.1 171.5 2.1 6.8 7.9 12.2 15.5 13.3 10.5 1.6 20.3-5.6 21.9-16.1.5-3.4.1-6.7-1-9.7-18.2-47.2-24.6-99.7-16.5-153.2M491.6 828.5c-4.2-.1-8.5-.4-12.7-.7l2.6-33.9c3.7.3 7.5.5 11.3.6l-1.2 34zm21.1 0l-1.2-34c3.8-.1 7.5-.4 11.3-.6l2.7 33.9c-4.3.3-8.5.6-12.8.7zm-54.9-3c-4.2-.6-8.4-1.3-12.5-2.1l6.4-33.4c3.7.7 7.4 1.3 11.1 1.9l-5 33.6zm88.7-.1l-5-33.6c3.7-.6 7.4-1.2 11.1-1.9l6.5 33.4c-4.2.7-8.5 1.5-12.6 2.1zm-121.9-6.8c-4.1-1.1-8.2-2.3-12.2-3.5l10.2-32.4c3.6 1.1 7.2 2.2 10.8 3.1l-8.8 32.8zm155.1-.1l-8.8-32.8c3.6-1 7.3-2 10.8-3.2l10.2 32.4c-4.1 1.3-8.2 2.5-12.2 3.6zM392.3 808c-3.9-1.6-7.9-3.2-11.8-4.9l13.8-31.1c3.4 1.5 6.9 3 10.4 4.4L392.3 808zm219.6-.2l-12.5-31.6c3.5-1.4 6.9-2.8 10.4-4.4l13.9 31.1c-4 1.7-7.9 3.4-11.8 4.9zm-250.4-14c-3.7-2-7.5-4.1-11.1-6.2l17.2-29.3c3.2 1.9 6.5 3.7 9.8 5.5l-15.9 30zm281.1-.2l-16-30c3.3-1.8 6.6-3.6 9.8-5.5l17.3 29.3c-3.7 2.1-7.4 4.2-11.1 6.2zm-310.1-17.4c-3.5-2.4-7-4.9-10.3-7.4l20.4-27.2c3 2.2 6.1 4.5 9.2 6.6l-19.3 28zm339-.3l-19.3-28c3.1-2.1 6.2-4.3 9.1-6.6l20.5 27.1c-3.4 2.6-6.8 5.1-10.3 7.5zm-365.8-20.5c-3.2-2.8-6.4-5.6-9.4-8.5l23.4-24.7c2.7 2.6 5.5 5.1 8.4 7.6l-22.4 25.6zm392.5-.2l-22.3-25.6c2.8-2.5 5.6-5 8.3-7.6l23.4 24.7c-3 2.8-6.2 5.7-9.4 8.5zm-416.8-23.4c-2.8-3.1-5.7-6.3-8.4-9.5l26-21.9c2.4 2.9 4.9 5.7 7.4 8.5l-25 22.9zm441.1-.3l-25.1-23c2.5-2.8 5-5.6 7.4-8.5l26 21.9c-2.6 3.2-5.5 6.5-8.3 9.6zm-462.6-25.9c-2.5-3.4-4.9-6.9-7.3-10.4l28.3-18.8c2.1 3.1 4.2 6.2 6.4 9.2l-27.4 20zm484-.4l-27.5-20c2.2-3 4.4-6.1 6.4-9.3l28.3 18.8c-2.2 3.6-4.7 7.1-7.2 10.5zm-502.3-28.1c-2.1-3.7-4.1-7.4-6-11.2l30.3-15.5c1.7 3.3 3.5 6.7 5.3 9.9l-29.6 16.8zm520.7-.4L732.7 660c1.8-3.3 3.6-6.6 5.3-9.9l30.3 15.4c-1.9 3.7-3.9 7.5-6 11.2zm-535.7-29.9c-1.6-3.9-3.2-7.8-4.7-11.8l31.8-12c1.3 3.5 2.7 7 4.2 10.4l-31.3 13.4zm550.7-.6L746 632.9c1.5-3.4 2.9-7 4.2-10.5l31.9 11.9c-1.6 4-3.2 8-4.8 11.9zm-562.2-31.3c-1.2-4-2.3-8.2-3.4-12.3l33-8.3c.9 3.6 1.9 7.3 3 10.9l-32.6 9.7zm573.6-.7l-32.6-9.6c1.1-3.6 2-7.2 2.9-10.9l33 8.2c-1 4.2-2.1 8.3-3.3 12.3zm-581.4-32.3c-.7-4.2-1.4-8.4-1.9-12.6l33.7-4.5c.5 3.7 1.1 7.5 1.7 11.1l-33.5 6zm589.1-.7l-33.5-5.8c.6-3.7 1.2-7.4 1.7-11.1l33.7 4.4c-.6 4.1-1.2 8.3-1.9 12.5zm-593-33c-.3-4.2-.4-8.5-.5-12.7l34-.6c.1 3.7.2 7.5.5 11.3l-34 2zm596.9-.7l-33.9-2c.2-3.7.4-7.5.4-11.3l34 .6c-.1 4.3-.3 8.5-.5 12.7zm-563.2-31.4l-34-1.7c.2-4.2.5-8.5.9-12.7l33.9 3.1c-.3 3.7-.6 7.5-.8 11.3zm529.3-.6c-.2-3.7-.5-7.5-.8-11.2l33.8-3.2c.4 4.2.7 8.5.9 12.7l-33.9 1.7zm-526-29.3l-33.5-5.5c.7-4.2 1.5-8.4 2.3-12.5l33.3 7c-.8 3.6-1.5 7.3-2.1 11zm522.8-.6c-.6-3.7-1.3-7.4-2.1-11.1l33.3-7c.9 4.1 1.7 8.3 2.4 12.5l-33.6 5.6zm-516.3-28.7l-32.7-9.3c1.2-4.1 2.4-8.2 3.8-12.2l32.3 10.7c-1.2 3.6-2.3 7.2-3.4 10.8zm509.6-.6c-1-3.6-2.2-7.2-3.3-10.8l32.2-10.8c1.3 4 2.6 8.1 3.8 12.2l-32.7 9.4zm-499.7-27.8l-31.4-13c1.6-3.9 3.3-7.8 5.1-11.7l30.8 14.3c-1.5 3.4-3.1 6.9-4.5 10.4zm489.8-.5c-1.4-3.4-3-6.9-4.5-10.3l30.8-14.4c1.8 3.8 3.5 7.7 5.1 11.6L746.6 428zm-476.7-26.6l-29.7-16.5c2-3.7 4.2-7.4 6.4-11l29 17.7c-2 3.2-3.9 6.5-5.7 9.8zm463.6-.4c-1.8-3.3-3.7-6.5-5.7-9.7l29-17.8c2.2 3.6 4.4 7.3 6.4 11L733.5 401zm-447.6-25l-27.7-19.7c2.5-3.4 5-6.9 7.6-10.2l26.8 20.9c-2.2 2.9-4.5 5.9-6.7 9zm431.5-.4c-2.2-3-4.5-6.1-6.8-9l26.8-20.9c2.6 3.3 5.2 6.7 7.6 10.2l-27.6 19.7zm-412.7-23.1l-25.3-22.7c2.8-3.1 5.8-6.3 8.7-9.3l24.3 23.8c-2.6 2.7-5.2 5.4-7.7 8.2zm393.9-.3c-2.5-2.8-5.1-5.5-7.7-8.2l24.3-23.8c3 3 5.9 6.1 8.7 9.3l-25.3 22.7zm-372.5-20.9l-22.6-25.4c3.2-2.8 6.4-5.6 9.7-8.2l21.5 26.4c-2.9 2.3-5.8 4.8-8.6 7.2zm351.1-.2c-2.8-2.5-5.7-4.9-8.6-7.3l21.4-26.4c3.3 2.7 6.5 5.4 9.7 8.2l-22.5 25.5zm-327.6-18.4l-19.5-27.8c3.5-2.4 7-4.8 10.5-7.1l18.3 28.6c-3 2-6.2 4.2-9.3 6.3zm304-.2c-3.1-2.2-6.2-4.3-9.4-6.3l18.3-28.7c3.6 2.3 7.1 4.6 10.6 7.1l-19.5 27.9zm-278.5-15.6L358.9 267c3.7-2 7.5-4 11.3-5.8l15 30.5c-3.4 1.6-6.8 3.4-10.1 5.2zm252.9-.3c-3.3-1.8-6.7-3.5-10-5.2l14.9-30.5c3.8 1.9 7.6 3.8 11.3 5.8L628 296.6zM402.3 284l-12.8-31.5c3.9-1.6 7.9-3.1 11.9-4.5l11.4 32c-3.5 1.3-7.1 2.6-10.5 4zm198.5-.2c-3.5-1.4-7-2.7-10.6-4l11.3-32.1c4 1.4 8 2.9 11.9 4.5l-12.6 31.6zm-170.1-9.5l-9.1-32.8c4.1-1.1 8.2-2.2 12.3-3.1l7.7 33.1c-3.6.9-7.3 1.8-10.9 2.8zm141.7-.1c-3.6-1-7.3-1.9-10.9-2.8l7.6-33.1c4.1.9 8.3 2 12.3 3.1l-9 32.8zM460 268l-5.3-33.6c4.2-.7 8.4-1.2 12.6-1.7l3.9 33.8c-3.7.4-7.5.9-11.2 1.5zm83-.1c-3.7-.6-7.5-1.1-11.2-1.5l3.8-33.8c4.2.5 8.4 1 12.6 1.7l-5.2 33.6zm-53.1-2.9l-1.5-34c4.2-.2 8.5-.3 12.7-.3l.1 34c-3.7 0-7.5.1-11.3.3zm23.2-.1c-3.7-.2-7.5-.2-11.3-.2v-34c4.2 0 8.5.1 12.7.3l-1.4 33.9zM823.8 558.2c-1.1 10.6 6.6 20 17.2 21.1 10.5 1.1 20-6.5 21.1-17.1v-.1c6.2-60.3-3.8-118.5-26.5-170.4-2.5-6.7-8.5-11.8-16.1-12.5-10.6-1.1-20 6.6-21.1 17.2-.3 3.4.2 6.7 1.5 9.7 20.4 46.2 29.4 98.2 23.9 152.1M547.8 321.9c-.3 0-.7 0-1-.1-12.5-2.3-25.6-3.5-38.8-3.5-3 0-5.5-2.5-5.5-5.5s2.5-5.5 5.5-5.5c13.9 0 27.6 1.2 40.8 3.7 3 .6 5 3.4 4.4 6.4-.5 2.7-2.8 4.5-5.4 4.5zM585.1 748c-2.2 0-4.3-1.4-5.2-3.6-1.1-2.8.4-6 3.2-7.1 23.6-8.7 45.3-21.4 64.5-37.7 2.3-2 5.8-1.7 7.8.6s1.7 5.8-.6 7.8a228.04 228.04 0 0 1-67.8 39.7c-.6.2-1.2.3-1.9.3zm93.3-66c-1.2 0-2.5-.4-3.5-1.3-2.3-1.9-2.6-5.4-.7-7.7 16.2-19.4 28.7-41.2 37.3-64.8 1-2.9 4.2-4.3 7-3.3 2.9 1 4.3 4.2 3.3 7-9 24.8-22.2 47.8-39.2 68.1-1 1.3-2.6 2-4.2 2zm48.1-103.7c-.3 0-.6 0-1-.1-3-.5-5-3.4-4.5-6.4 2.1-12.2 3.2-24.8 3.2-37.3 0-12.6-1.1-25.2-3.2-37.4-.5-3 1.5-5.8 4.5-6.4 3-.5 5.8 1.5 6.4 4.5 2.3 12.9 3.4 26.1 3.4 39.3 0 13.2-1.1 26.4-3.4 39.2-.4 2.7-2.8 4.6-5.4 4.6zm-9.9-113.9c-2.2 0-4.4-1.4-5.2-3.6-8.6-23.6-21.1-45.4-37.3-64.8-1.9-2.3-1.6-5.8.7-7.7 2.3-1.9 5.8-1.6 7.7.7 17 20.4 30.2 43.3 39.2 68.1 1 2.9-.4 6-3.3 7-.6.2-1.2.3-1.8.3zm-65.4-93.7c-1.3 0-2.5-.4-3.5-1.3-19.3-16.3-41-29-64.6-37.7-2.8-1.1-4.3-4.2-3.2-7.1 1.1-2.8 4.2-4.3 7.1-3.2 24.8 9.2 47.6 22.5 67.8 39.7 2.3 2 2.6 5.4.6 7.8-1.1 1.1-2.6 1.8-4.2 1.8zM508 761.8c-3 0-5.5-2.5-5.5-5.5s2.5-5.5 5.5-5.5c12.7 0 25.8-1.2 38.8-3.5 3-.5 5.8 1.5 6.4 4.4.5 3-1.5 5.8-4.4 6.4-13.7 2.5-27.5 3.7-40.8 3.7zM499.9 721c-35.5 0-69.9-10.1-99.7-29.2-2.6-1.6-3.3-5-1.7-7.6 1.6-2.6 5-3.3 7.6-1.7 28 17.9 60.4 27.4 93.7 27.4 46.4 0 89.9-18 122.7-50.8s50.8-76.3 50.8-122.7-18-89.9-50.8-122.7C589.8 381 546.3 363 499.9 363c-46.4 0-89.9 18-122.7 50.8s-50.8 76.3-50.8 122.7c0 17.8 2.7 35.5 8.1 52.6.4 1.4.3 2.9-.4 4.2s-1.9 2.3-3.3 2.7l-45.5 13.5c-2.9.9-5.9-.7-6.8-3.6-18.4-57.8-13.3-119.3 14.5-173.3 27.8-54 75-93.8 132.7-112.3 2.9-.9 6 .7 6.9 3.6.9 2.9-.7 6-3.6 6.9-111.8 35.8-174.4 154.6-141.7 266.6l35-10.4c-4.7-16.5-7-33.5-7-50.6 0-49.3 19.2-95.6 54-130.5s81.2-54 130.5-54 95.6 19.2 130.5 54 54 81.2 54 130.5-19.2 95.6-54 130.5c-34.8 34.9-81.1 54.1-130.4 54.1z"></path><circle cx="500" cy="536.6" r="118.9"></circle><path d="M385.4 696.9c-13.3 0-24.2-10.9-24.2-24.2s10.9-24.2 24.2-24.2c13.3 0 24.2 10.9 24.2 24.2s-10.9 24.2-24.2 24.2zm0-38.4c-7.8 0-14.2 6.4-14.2 14.2s6.4 14.2 14.2 14.2c7.8 0 14.2-6.4 14.2-14.2s-6.4-14.2-14.2-14.2z"></path></g><!----></svg>