<svg data-v-d3f97b9e="" xmlns="http://www.w3.org/2000/svg" viewBox="0 0 54.56145792548675 60"><!----><!----><!----><!----><g data-v-d3f97b9e="" id="f370275a-3506-45a2-8591-61398bde41f2" transform="matrix(0.075736388921889,0,0,0.075736388921889,-10.867591984467602,-7.490344816551236)" stroke="none" fill="black"><path d="M292.4 147.3c-13.3 0-24.2-10.9-24.2-24.2 0-13.3 10.9-24.2 24.2-24.2 13.3 0 24.2 10.9 24.2 24.2 0 13.3-10.9 24.2-24.2 24.2zm0-38.4c-7.8 0-14.2 6.4-14.2 14.2 0 7.8 6.4 14.2 14.2 14.2 7.8 0 14.2-6.4 14.2-14.2 0-7.8-6.4-14.2-14.2-14.2z"></path><path d="M502.9 875.9c-45.6 0-89.9-8.8-131.8-26.3-41.2-17.1-78.2-41.8-110.1-73.3-31.9-31.5-57-68.2-74.6-109.2-18.2-42.4-27.6-87.5-27.8-134-.1-20.5 1.6-40.9 5.1-60.7l9.8 1.7c-3.4 19.2-5 39-4.9 58.9.2 45.1 9.3 88.9 27 130.1 17.1 39.8 41.5 75.4 72.4 106 31 30.6 66.9 54.5 106.9 71.2 40.7 16.9 83.7 25.5 128 25.5h2.4c88.8-.6 172.2-35.6 234.8-98.6 62.7-63.1 97.2-146.8 97.2-235.7 0-89.3-34.7-173.2-97.7-236.3-63-63.1-146.9-97.9-236.2-98h-1c-31 0-61.7 4.3-91.2 12.7-19.6 5.6-40.8.2-55.2-14.2l-54.7-54.5 7.1-7.1 54.7 54.5c11.9 11.8 29.3 16.2 45.4 11.6 30.7-8.8 62.7-13.2 95-13.1 92 .1 178.4 36 243.3 101s100.6 151.4 100.6 243.3c0 91.6-35.5 177.7-100.1 242.7-64.5 64.9-150.4 101-241.9 101.6-.9.2-1.7.2-2.5.2z"></path><path d="M710 773.9c-8.2 6.8-9.4 18.9-2.6 27.1 6.7 8.2 18.8 9.4 27 2.7h.1c46.8-38.5 80.7-87 101-139.8 3-6.5 2.2-14.4-2.6-20.2-6.8-8.2-18.9-9.4-27.1-2.6-2.7 2.2-4.6 4.9-5.7 7.9-18.1 47.2-48.3 90.6-90.1 124.9M461.8 849.3c-10.5-1.6-20.3 5.6-21.9 16.1s5.6 20.2 16 21.9h.1c59.9 9 118.6 1.8 171.4-18.4 6.8-2.1 12.2-8 13.3-15.5 1.6-10.5-5.6-20.3-16.1-21.9-3.4-.5-6.7-.1-9.7 1-47.2 18.3-99.6 24.9-153.1 16.8M246.2 719.5c-6.1-8.7-18.1-10.7-26.8-4.5-8.6 6.1-10.7 18.1-4.6 26.7l.1.1c35.1 49.4 81 86.6 132.3 110.6 6.2 3.4 14.2 3.2 20.4-1.2 8.7-6.2 10.7-18.2 4.5-26.8-2-2.8-4.6-4.9-7.5-6.3-45.9-21.3-87.1-54.5-118.4-98.6M745.6 319.9c7 8 19.2 8.7 27.1 1.7 7.9-7 8.7-19.1 1.7-27.1v-.1c-40.1-45.4-89.7-77.5-143.2-96-6.6-2.7-14.4-1.7-20.1 3.3-8 7-8.7 19.2-1.7 27.1 2.3 2.6 5.1 4.4 8.1 5.4 47.9 16.6 92.3 45.2 128.1 85.7M185.4 487.1c1.6-10.5-5.6-20.3-16.1-21.9s-20.3 5.6-21.9 16v.1c-9.1 59.9-2 118.6 18.1 171.5 2.1 6.8 7.9 12.2 15.5 13.3 10.5 1.6 20.3-5.6 21.9-16.1.5-3.4.1-6.7-1-9.7-18.2-47.2-24.6-99.7-16.5-153.2M491.6 828.5c-4.2-.1-8.5-.4-12.7-.7l2.6-33.9c3.7.3 7.5.5 11.3.6l-1.2 34zm21.1 0l-1.2-34c3.8-.1 7.5-.4 11.3-.6l2.7 33.9c-4.3.3-8.5.6-12.8.7zm-54.9-3c-4.2-.6-8.4-1.3-12.5-2.1l6.4-33.4c3.7.7 7.4 1.3 11.1 1.9l-5 33.6zm88.7-.1l-5-33.6c3.7-.6 7.4-1.2 11.1-1.9l6.5 33.4c-4.2.7-8.5 1.5-12.6 2.1zm-121.9-6.8c-4.1-1.1-8.2-2.3-12.2-3.5l10.2-32.4c3.6 1.1 7.2 2.2 10.8 3.1l-8.8 32.8zm155.1-.1l-8.8-32.8c3.6-1 7.3-2 10.8-3.2l10.2 32.4c-4.1 1.3-8.2 2.5-12.2 3.6zM392.3 808c-3.9-1.6-7.9-3.2-11.8-4.9l13.8-31.1c3.4 1.5 6.9 3 10.4 4.4L392.3 808zm219.6-.2l-12.5-31.6c3.5-1.4 6.9-2.8 10.4-4.4l13.9 31.1c-4 1.7-7.9 3.4-11.8 4.9zm-250.4-14c-3.7-2-7.5-4.1-11.1-6.2l17.2-29.3c3.2 1.9 6.5 3.7 9.8 5.5l-15.9 30zm281.1-.2l-16-30c3.3-1.8 6.6-3.6 9.8-5.5l17.3 29.3c-3.7 2.1-7.4 4.2-11.1 6.2zm-310.1-17.4c-3.5-2.4-7-4.9-10.3-7.4l20.4-27.2c3 2.2 6.1 4.5 9.2 6.6l-19.3 28zm339-.3l-19.3-28c3.1-2.1 6.2-4.3 9.1-6.6l20.5 27.1c-3.4 2.6-6.8 5.1-10.3 7.5zm-365.8-20.5c-3.2-2.8-6.4-5.6-9.4-8.5l23.4-24.7c2.7 2.6 5.5 5.1 8.4 7.6l-22.4 25.6zm392.5-.2l-22.3-25.6c2.8-2.5 5.6-5 8.3-7.6l23.4 24.7c-3 2.8-6.2 5.7-9.4 8.5zm-416.8-23.4c-2.8-3.1-5.7-6.3-8.4-9.5l26-21.9c2.4 2.9 4.9 5.7 7.4 8.5l-25 22.9zm441.1-.3l-25.1-23c2.5-2.8 5-5.6 7.4-8.5l26 21.9c-2.6 3.2-5.5 6.5-8.3 9.6zm-462.6-25.9c-2.5-3.4-4.9-6.9-7.3-10.4l28.3-18.8c2.1 3.1 4.2 6.2 6.4 9.2l-27.4 20zm484-.4l-27.5-20c2.2-3 4.4-6.1 6.4-9.3l28.3 18.8c-2.2 3.6-4.7 7.1-7.2 10.5zm-502.3-28.1c-2.1-3.7-4.1-7.4-6-11.2l30.3-15.5c1.7 3.3 3.5 6.7 5.3 9.9l-29.6 16.8zm520.7-.4L732.7 660c1.8-3.3 3.6-6.6 5.3-9.9l30.3 15.4c-1.9 3.7-3.9 7.5-6 11.2zm-535.7-29.9c-1.6-3.9-3.2-7.8-4.7-11.8l31.8-12c1.3 3.5 2.7 7 4.2 10.4l-31.3 13.4zm550.7-.6L746 632.9c1.5-3.4 2.9-7 4.2-10.5l31.9 11.9c-1.6 4-3.2 8-4.8 11.9zm-562.2-31.3c-1.2-4-2.3-8.2-3.4-12.3l33-8.3c.9 3.6 1.9 7.3 3 10.9l-32.6 9.7zm573.6-.7l-32.6-9.6c1.1-3.6 2-7.2 2.9-10.9l33 8.2c-1 4.2-2.1 8.3-3.3 12.3zm-581.4-32.3c-.7-4.2-1.4-8.4-1.9-12.6l33.7-4.5c.5 3.7 1.1 7.5 1.7 11.1l-33.5 6zm589.1-.7l-33.5-5.8c.6-3.7 1.2-7.4 1.7-11.1l33.7 4.4c-.6 4.1-1.2 8.3-1.9 12.5zm-593-33c-.3-4.2-.4-8.5-.5-12.7l34-.6c.1 3.7.2 7.5.5 11.3l-34 2zm596.9-.7l-33.9-2c.2-3.7.4-7.5.4-11.3l34 .6c-.1 4.3-.3 8.5-.5 12.7zm-563.2-31.4l-34-1.7c.2-4.2.5-8.5.9-12.7l33.9 3.1c-.3 3.7-.6 7.5-.8 11.3zm529.3-.6c-.2-3.7-.5-7.5-.8-11.2l33.8-3.2c.4 4.2.7 8.5.9 12.7l-33.9 1.7zm-526-29.3l-33.5-5.5c.7-4.2 1.5-8.4 2.3-12.5l33.3 7c-.8 3.6-1.5 7.3-2.1 11zm522.8-.6c-.6-3.7-1.3-7.4-2.1-11.1l33.3-7c.9 4.1 1.7 8.3 2.4 12.5l-33.6 5.6zm-516.3-28.7l-32.7-9.3c1.2-4.1 2.4-8.2 3.8-12.2l32.3 10.7c-1.2 3.6-2.3 7.2-3.4 10.8zm509.6-.6c-1-3.6-2.2-7.2-3.3-10.8l32.2-10.8c1.3 4 2.6 8.1 3.8 12.2l-32.7 9.4zm-499.7-27.8l-31.4-13c1.6-3.9 3.3-7.8 5.1-11.7l30.8 14.3c-1.5 3.4-3.1 6.9-4.5 10.4zm489.8-.5c-1.4-3.4-3-6.9-4.5-10.3l30.8-14.4c1.8 3.8 3.5 7.7 5.1 11.6L746.6 428zm-476.7-26.6l-29.7-16.5c2-3.7 4.2-7.4 6.4-11l29 17.7c-2 3.2-3.9 6.5-5.7 9.8zm463.6-.4c-1.8-3.3-3.7-6.5-5.7-9.7l29-17.8c2.2 3.6 4.4 7.3 6.4 11L733.5 401zm-447.6-25l-27.7-19.7c2.5-3.4 5-6.9 7.6-10.2l26.8 20.9c-2.2 2.9-4.5 5.9-6.7 9zm431.5-.4c-2.2-3-4.5-6.1-6.8-9l26.8-20.9c2.6 3.3 5.2 6.7 7.6 10.2l-27.6 19.7zm-412.7-23.1l-25.3-22.7c2.8-3.1 5.8-6.3 8.7-9.3l24.3 23.8c-2.6 2.7-5.2 5.4-7.7 8.2zm393.9-.3c-2.5-2.8-5.1-5.5-7.7-8.2l24.3-23.8c3 3 5.9 6.1 8.7 9.3l-25.3 22.7zm-372.5-20.9l-22.6-25.4c3.2-2.8 6.4-5.6 9.7-8.2l21.5 26.4c-2.9 2.3-5.8 4.8-8.6 7.2zm351.1-.2c-2.8-2.5-5.7-4.9-8.6-7.3l21.4-26.4c3.3 2.7 6.5 5.4 9.7 8.2l-22.5 25.5zm-327.6-18.4l-19.5-27.8c3.5-2.4 7-4.8 10.5-7.1l18.3 28.6c-3 2-6.2 4.2-9.3 6.3zm304-.2c-3.1-2.2-6.2-4.3-9.4-6.3l18.3-28.7c3.6 2.3 7.1 4.6 10.6 7.1l-19.5 27.9zm-278.5-15.6L358.9 267c3.7-2 7.5-4 11.3-5.8l15 30.5c-3.4 1.6-6.8 3.4-10.1 5.2zm252.9-.3c-3.3-1.8-6.7-3.5-10-5.2l14.9-30.5c3.8 1.9 7.6 3.8 11.3 5.8L628 296.6zM402.3 284l-12.8-31.5c3.9-1.6 7.9-3.1 11.9-4.5l11.4 32c-3.5 1.3-7.1 2.6-10.5 4zm198.5-.2c-3.5-1.4-7-2.7-10.6-4l11.3-32.1c4 1.4 8 2.9 11.9 4.5l-12.6 31.6zm-170.1-9.5l-9.1-32.8c4.1-1.1 8.2-2.2 12.3-3.1l7.7 33.1c-3.6.9-7.3 1.8-10.9 2.8zm141.7-.1c-3.6-1-7.3-1.9-10.9-2.8l7.6-33.1c4.1.9 8.3 2 12.3 3.1l-9 32.8zM460 268l-5.3-33.6c4.2-.7 8.4-1.2 12.6-1.7l3.9 33.8c-3.7.4-7.5.9-11.2 1.5zm83-.1c-3.7-.6-7.5-1.1-11.2-1.5l3.8-33.8c4.2.5 8.4 1 12.6 1.7l-5.2 33.6zm-53.1-2.9l-1.5-34c4.2-.2 8.5-.3 12.7-.3l.1 34c-3.7 0-7.5.1-11.3.3zm23.2-.1c-3.7-.2-7.5-.2-11.3-.2v-34c4.2 0 8.5.1 12.7.3l-1.4 33.9zM823.8 558.2c-1.1 10.6 6.6 20 17.2 21.1 10.5 1.1 20-6.5 21.1-17.1v-.1c6.2-60.3-3.8-118.5-26.5-170.4-2.5-6.7-8.5-11.8-16.1-12.5-10.6-1.1-20 6.6-21.1 17.2-.3 3.4.2 6.7 1.5 9.7 20.4 46.2 29.4 98.2 23.9 152.1M547.8 321.9c-.3 0-.7 0-1-.1-12.5-2.3-25.6-3.5-38.8-3.5-3 0-5.5-2.5-5.5-5.5s2.5-5.5 5.5-5.5c13.9 0 27.6 1.2 40.8 3.7 3 .6 5 3.4 4.4 6.4-.5 2.7-2.8 4.5-5.4 4.5zM585.1 748c-2.2 0-4.3-1.4-5.2-3.6-1.1-2.8.4-6 3.2-7.1 23.6-8.7 45.3-21.4 64.5-37.7 2.3-2 5.8-1.7 7.8.6s1.7 5.8-.6 7.8a228.04 228.04 0 0 1-67.8 39.7c-.6.2-1.2.3-1.9.3zm93.3-66c-1.2 0-2.5-.4-3.5-1.3-2.3-1.9-2.6-5.4-.7-7.7 16.2-19.4 28.7-41.2 37.3-64.8 1-2.9 4.2-4.3 7-3.3 2.9 1 4.3 4.2 3.3 7-9 24.8-22.2 47.8-39.2 68.1-1 1.3-2.6 2-4.2 2zm48.1-103.7c-.3 0-.6 0-1-.1-3-.5-5-3.4-4.5-6.4 2.1-12.2 3.2-24.8 3.2-37.3 0-12.6-1.1-25.2-3.2-37.4-.5-3 1.5-5.8 4.5-6.4 3-.5 5.8 1.5 6.4 4.5 2.3 12.9 3.4 26.1 3.4 39.3 0 13.2-1.1 26.4-3.4 39.2-.4 2.7-2.8 4.6-5.4 4.6zm-9.9-113.9c-2.2 0-4.4-1.4-5.2-3.6-8.6-23.6-21.1-45.4-37.3-64.8-1.9-2.3-1.6-5.8.7-7.7 2.3-1.9 5.8-1.6 7.7.7 17 20.4 30.2 43.3 39.2 68.1 1 2.9-.4 6-3.3 7-.6.2-1.2.3-1.8.3zm-65.4-93.7c-1.3 0-2.5-.4-3.5-1.3-19.3-16.3-41-29-64.6-37.7-2.8-1.1-4.3-4.2-3.2-7.1 1.1-2.8 4.2-4.3 7.1-3.2 24.8 9.2 47.6 22.5 67.8 39.7 2.3 2 2.6 5.4.6 7.8-1.1 1.1-2.6 1.8-4.2 1.8zM508 761.8c-3 0-5.5-2.5-5.5-5.5s2.5-5.5 5.5-5.5c12.7 0 25.8-1.2 38.8-3.5 3-.5 5.8 1.5 6.4 4.4.5 3-1.5 5.8-4.4 6.4-13.7 2.5-27.5 3.7-40.8 3.7zM499.9 721c-35.5 0-69.9-10.1-99.7-29.2-2.6-1.6-3.3-5-1.7-7.6 1.6-2.6 5-3.3 7.6-1.7 28 17.9 60.4 27.4 93.7 27.4 46.4 0 89.9-18 122.7-50.8s50.8-76.3 50.8-122.7-18-89.9-50.8-122.7C589.8 381 546.3 363 499.9 363c-46.4 0-89.9 18-122.7 50.8s-50.8 76.3-50.8 122.7c0 17.8 2.7 35.5 8.1 52.6.4 1.4.3 2.9-.4 4.2s-1.9 2.3-3.3 2.7l-45.5 13.5c-2.9.9-5.9-.7-6.8-3.6-18.4-57.8-13.3-119.3 14.5-173.3 27.8-54 75-93.8 132.7-112.3 2.9-.9 6 .7 6.9 3.6.9 2.9-.7 6-3.6 6.9-111.8 35.8-174.4 154.6-141.7 266.6l35-10.4c-4.7-16.5-7-33.5-7-50.6 0-49.3 19.2-95.6 54-130.5s81.2-54 130.5-54 95.6 19.2 130.5 54 54 81.2 54 130.5-19.2 95.6-54 130.5c-34.8 34.9-81.1 54.1-130.4 54.1z"></path><circle cx="500" cy="536.6" r="118.9"></circle><path d="M385.4 696.9c-13.3 0-24.2-10.9-24.2-24.2s10.9-24.2 24.2-24.2c13.3 0 24.2 10.9 24.2 24.2s-10.9 24.2-24.2 24.2zm0-38.4c-7.8 0-14.2 6.4-14.2 14.2s6.4 14.2 14.2 14.2c7.8 0 14.2-6.4 14.2-14.2s-6.4-14.2-14.2-14.2z"></path></g><!----></svg>